<?xml version="1.0" standalone="no"?>
<!DOCTYPE svg PUBLIC "-//W3C//DTD SVG 20010904//EN"
 "http://www.w3.org/TR/2001/REC-SVG-20010904/DTD/svg10.dtd">
<svg version="1.0" xmlns="http://www.w3.org/2000/svg"
 width="200.000000pt" height="200.000000pt" viewBox="0 0 200.000000 200.000000"
 preserveAspectRatio="xMidYMid meet">

<g transform="translate(0.000000,200.000000) scale(0.100000,-0.100000)"
fill="#000000" stroke="none">
<path d="M950 1863 c-25 -10 -30 -25 -30 -92 0 -57 -3 -68 -27 -93 -40 -42
-70 -37 -128 22 -28 28 -58 50 -70 50 -26 0 -125 -99 -125 -124 0 -11 23 -43
51 -73 45 -48 50 -57 44 -86 -10 -50 -37 -67 -110 -67 -80 0 -95 -6 -95 -37 0
-24 2 -25 42 -19 24 3 105 8 181 12 l138 7 18 36 c24 46 45 65 101 90 94 43
199 10 255 -79 l24 -37 158 -7 c87 -4 169 -10 181 -13 20 -5 23 -2 20 18 -3
23 -8 24 -78 27 -65 3 -79 6 -102 29 -42 40 -37 70 22 128 28 28 50 58 50 70
0 26 -99 125 -125 125 -11 0 -41 -21 -67 -47 -40 -40 -52 -46 -85 -45 -57 2
-73 28 -73 118 0 71 -1 75 -26 84 -27 11 -119 12 -144 3z"/>
<path d="M645 1310 c-148 -10 -280 -20 -292 -21 -18 -3 -39 -38 -103 -169 -53
-108 -77 -166 -68 -167 7 -1 137 -9 288 -18 151 -8 293 -16 315 -18 l40 -2 24
60 c13 33 50 126 81 208 l58 147 -36 -1 c-21 -1 -158 -10 -307 -19z"/>
<path d="M1109 1183 c32 -81 69 -175 82 -208 l24 -60 40 2 c22 2 164 10 315
18 151 9 281 17 288 18 9 1 -14 57 -68 167 -45 91 -83 166 -84 167 -1 1 -114
9 -251 17 -138 9 -285 18 -327 22 l-77 6 58 -149z"/>
<path d="M921 1068 l-74 -188 -36 0 c-42 0 -333 17 -439 25 l-72 6 0 -291 c0
-159 1 -290 3 -290 1 0 157 -45 347 -100 189 -54 346 -98 347 -96 2 2 2 254 1
562 l-3 559 -74 -187z"/>
<path d="M1040 689 c0 -529 1 -560 18 -555 9 3 159 46 332 96 173 50 323 93
333 96 16 5 17 28 17 295 l0 290 -72 -6 c-107 -8 -397 -25 -439 -25 l-36 0
-72 185 c-40 102 -74 185 -77 185 -2 0 -4 -252 -4 -561z"/>
</g>
</svg>
